<svg width="1322" height="342" viewBox="0 0 1322 342" fill="none" xmlns="http://www.w3.org/2000/svg">
<path d="M0.0888889 87.4508C0.0888889 93.0508 0.0888889 98.6508 0.0888889 104.251C0.0888889 117.551 0.0888889 130.951 0.0888889 144.251C0.0888889 160.351 0.0888889 176.451 0.0888889 192.551C0.0888889 206.451 0.0888889 220.351 0.0888889 234.351C0.0888889 241.051 -0.111111 247.851 0.0888889 254.651C0.0888889 254.751 0.0888889 254.851 0.0888889 254.951C0.0888889 258.151 5.08889 258.151 5.08889 254.951C5.08889 249.351 5.08889 243.751 5.08889 238.151C5.08889 224.851 5.08889 211.451 5.08889 198.151C5.08889 182.051 5.08889 165.951 5.08889 149.851C5.08889 135.951 5.08889 122.051 5.08889 108.051C5.08889 101.351 5.28889 94.5508 5.08889 87.7508C5.08889 87.6508 5.08889 87.5508 5.08889 87.4508C5.08889 84.2508 0.0888889 84.2508 0.0888889 87.4508Z" fill="#0A4D4C"/>
<path d="M28.7886 71.6508C28.7886 73.4508 28.7886 75.2508 28.7886 76.9508C28.7886 81.7508 28.7886 86.5508 28.7886 91.4508C28.7886 98.6508 28.7886 105.751 28.7886 112.951C28.7886 121.651 28.7886 130.351 28.7886 139.051C28.7886 148.651 28.7886 158.151 28.7886 167.751C28.7886 177.351 28.7886 186.951 28.7886 196.551C28.7886 205.551 28.7886 214.451 28.7886 223.451C28.7886 231.051 28.7886 238.651 28.7886 246.251C28.7886 251.751 28.7886 257.151 28.7886 262.651C28.7886 265.251 28.6886 267.851 28.7886 270.351C28.7886 270.451 28.7886 270.551 28.7886 270.651C28.7886 273.851 33.7886 273.851 33.7886 270.651C33.7886 268.851 33.7886 267.051 33.7886 265.351C33.7886 260.551 33.7886 255.751 33.7886 250.851C33.7886 243.651 33.7886 236.551 33.7886 229.351C33.7886 220.651 33.7886 211.951 33.7886 203.251C33.7886 193.651 33.7886 184.151 33.7886 174.551C33.7886 164.951 33.7886 155.351 33.7886 145.751C33.7886 136.751 33.7886 127.851 33.7886 118.851C33.7886 111.251 33.7886 103.651 33.7886 96.0508C33.7886 90.5508 33.7886 85.1508 33.7886 79.6508C33.7886 77.0508 33.8886 74.4508 33.7886 71.9508C33.7886 71.8508 33.7886 71.7508 33.7886 71.6508C33.7886 68.3508 28.7886 68.3508 28.7886 71.6508Z" fill="#0A4D4C"/>
<path d="M57.4888 53.8509C57.4888 55.9509 57.4888 58.0509 57.4888 60.1509C57.4888 65.8509 57.4888 71.4509 57.4888 77.1509C57.4888 85.5509 57.4888 93.9509 57.4888 102.351C57.4888 112.551 57.4888 122.751 57.4888 132.951C57.4888 144.151 57.4888 155.351 57.4888 166.551C57.4888 177.851 57.4888 189.051 57.4888 200.351C57.4888 210.851 57.4888 221.451 57.4888 231.951C57.4888 240.851 57.4888 249.751 57.4888 258.651C57.4888 265.051 57.4888 271.451 57.4888 277.851C57.4888 280.851 57.3888 283.951 57.4888 286.951C57.4888 287.051 57.4888 287.251 57.4888 287.351C57.4888 290.551 62.4888 290.551 62.4888 287.351C62.4888 285.251 62.4888 283.151 62.4888 281.051C62.4888 275.351 62.4888 269.751 62.4888 264.051C62.4888 255.651 62.4888 247.251 62.4888 238.851C62.4888 228.651 62.4888 218.451 62.4888 208.251C62.4888 197.051 62.4888 185.851 62.4888 174.651C62.4888 163.351 62.4888 152.151 62.4888 140.851C62.4888 130.351 62.4888 119.751 62.4888 109.251C62.4888 100.351 62.4888 91.4509 62.4888 82.5509C62.4888 76.1509 62.4888 69.7509 62.4888 63.3509C62.4888 60.3509 62.5888 57.2509 62.4888 54.2509C62.4888 54.1509 62.4888 53.9509 62.4888 53.8509C62.4888 50.6509 57.4888 50.6509 57.4888 53.8509Z" fill="#0A4D4C"/>
<path d="M87.689 37.2508C87.689 39.6508 87.689 42.0508 87.689 44.4508C87.689 50.9508 87.689 57.3508 87.689 63.8508C87.689 73.4508 87.689 83.0508 87.689 92.6508C87.689 104.351 87.689 116.051 87.689 127.751C87.689 140.551 87.689 153.251 87.689 166.051C87.689 179.051 87.689 192.051 87.689 204.951C87.689 216.951 87.689 228.951 87.689 241.051C87.689 251.251 87.689 261.451 87.689 271.651C87.689 278.951 87.689 286.351 87.689 293.651C87.689 297.151 87.589 300.551 87.689 304.051C87.689 304.251 87.689 304.351 87.689 304.551C87.689 307.751 92.689 307.751 92.689 304.551C92.689 302.151 92.689 299.751 92.689 297.351C92.689 290.851 92.689 284.451 92.689 277.951C92.689 268.351 92.689 258.751 92.689 249.151C92.689 237.451 92.689 225.751 92.689 214.051C92.689 201.251 92.689 188.551 92.689 175.751C92.689 162.751 92.689 149.751 92.689 136.851C92.689 124.851 92.689 112.851 92.689 100.751C92.689 90.5508 92.689 80.3508 92.689 70.1508C92.689 62.8508 92.689 55.4508 92.689 48.1508C92.689 44.6508 92.789 41.2508 92.689 37.7508C92.689 37.5508 92.689 37.4508 92.689 37.2508C92.689 34.0508 87.689 34.0508 87.689 37.2508Z" fill="#0A4D4C"/>
<path d="M116.489 20.9508C116.489 23.6508 116.489 26.3508 116.489 29.0508C116.489 36.3508 116.489 43.6508 116.489 50.8508C116.489 61.6508 116.489 72.4508 116.489 83.2508C116.489 96.4508 116.489 109.551 116.489 122.751C116.489 137.151 116.489 151.551 116.489 165.851C116.489 180.451 116.489 195.051 116.489 209.651C116.489 223.151 116.489 236.751 116.489 250.251C116.489 261.751 116.489 273.251 116.489 284.651C116.489 292.951 116.489 301.151 116.489 309.451C116.489 313.351 116.389 317.251 116.489 321.151C116.489 321.351 116.489 321.451 116.489 321.651C116.489 324.851 121.489 324.851 121.489 321.651C121.489 318.951 121.489 316.251 121.489 313.551C121.489 306.251 121.489 298.951 121.489 291.751C121.489 280.951 121.489 270.151 121.489 259.351C121.489 246.151 121.489 233.051 121.489 219.851C121.489 205.451 121.489 191.051 121.489 176.751C121.489 162.151 121.489 147.551 121.489 132.951C121.489 119.451 121.489 105.851 121.489 92.3508C121.489 80.8508 121.489 69.3508 121.489 57.9508C121.489 49.6508 121.489 41.4508 121.489 33.1508C121.489 29.2508 121.589 25.3508 121.489 21.4508C121.489 21.2508 121.489 21.1508 121.489 20.9508C121.489 17.7508 116.489 17.7508 116.489 20.9508Z" fill="#0A4D4C"/>
<path d="M145.889 3.95078C145.889 6.95078 145.889 9.95078 145.889 12.9508C145.889 21.0508 145.889 29.1508 145.889 37.2508C145.889 49.2508 145.889 61.2508 145.889 73.3508C145.889 88.0508 145.889 102.651 145.889 117.351C145.889 133.351 145.889 149.351 145.889 165.351C145.889 181.651 145.889 197.851 145.889 214.151C145.889 229.251 145.889 244.251 145.889 259.351C145.889 272.151 145.889 284.851 145.889 297.651C145.889 306.851 145.889 316.051 145.889 325.251C145.889 329.551 145.789 333.951 145.889 338.251C145.889 338.451 145.889 338.651 145.889 338.851C145.889 342.051 150.889 342.051 150.889 338.851C150.889 335.851 150.889 332.851 150.889 329.851C150.889 321.751 150.889 313.651 150.889 305.551C150.889 293.551 150.889 281.551 150.889 269.451C150.889 254.751 150.889 240.151 150.889 225.451C150.889 209.451 150.889 193.451 150.889 177.451C150.889 161.151 150.889 144.951 150.889 128.651C150.889 113.551 150.889 98.5508 150.889 83.4508C150.889 70.6508 150.889 57.9508 150.889 45.1508C150.889 35.9508 150.889 26.7508 150.889 17.5508C150.889 13.2508 150.989 8.85078 150.889 4.55078C150.889 4.35078 150.889 4.15078 150.889 3.95078C150.889 0.750781 145.889 0.750781 145.889 3.95078Z" fill="#0A4D4C"/>
<path d="M3.78845 89.6509C8.58845 86.8509 13.4884 84.0509 18.2884 81.1509C29.8884 74.3509 41.4884 67.6509 53.1884 60.8509C67.2885 52.6509 81.2884 44.4509 95.3884 36.2509C107.488 29.1509 119.688 22.0509 131.788 15.0509C137.688 11.6509 143.688 8.35086 149.488 4.75086C149.588 4.75086 149.688 4.65087 149.688 4.65087C152.488 3.05087 149.988 -1.24914 147.188 0.350865C142.388 3.15086 137.488 5.95087 132.688 8.85087C121.088 15.6509 109.488 22.3509 97.7885 29.1509C83.6885 37.2509 69.6884 45.4509 55.5884 53.6509C43.4884 60.7509 31.2885 67.8509 19.1884 74.8509C13.2885 78.2509 7.28845 81.5509 1.48845 85.1509C1.38845 85.1509 1.28845 85.2509 1.28845 85.2509C-1.51155 86.9509 0.988448 91.2509 3.78845 89.6509Z" fill="#0A4D4C"/>
<path d="M295.189 84.9509C290.389 82.1509 285.589 79.3509 280.789 76.5509C269.289 69.8509 257.789 63.1509 246.289 56.5509C232.389 48.4509 218.489 40.4509 204.589 32.3509C192.589 25.3509 180.489 18.3509 168.489 11.3509C162.689 7.95091 156.989 4.45091 151.089 1.25091C150.989 1.25091 150.889 1.15091 150.889 1.15091C148.089 -0.449086 145.589 3.85091 148.389 5.45091C153.189 8.25091 157.989 11.0509 162.789 13.8509C174.289 20.5509 185.789 27.2509 197.289 33.8509C211.189 41.9509 225.089 49.9509 238.989 58.0509C250.989 65.0509 263.089 72.0509 275.089 79.0509C280.889 82.4509 286.589 85.9509 292.489 89.1509C292.589 89.1509 292.689 89.2509 292.689 89.2509C295.389 90.8509 297.889 86.5509 295.189 84.9509Z" fill="#0A4D4C"/>
<path d="M296.389 254.951C296.389 249.351 296.389 243.751 296.389 238.151C296.389 224.851 296.389 211.451 296.389 198.151C296.389 182.051 296.389 165.951 296.389 149.851C296.389 135.951 296.389 122.051 296.389 108.051C296.389 101.351 296.589 94.5508 296.389 87.7508C296.389 87.6508 296.389 87.5508 296.389 87.4508C296.389 84.2508 291.389 84.2508 291.389 87.4508C291.389 93.0508 291.389 98.6508 291.389 104.251C291.389 117.551 291.389 130.951 291.389 144.251C291.389 160.351 291.389 176.451 291.389 192.551C291.389 206.451 291.389 220.351 291.389 234.351C291.389 241.051 291.189 247.851 291.389 254.651C291.389 254.751 291.389 254.851 291.389 254.951C291.389 258.151 296.389 258.151 296.389 254.951Z" fill="#0A4D4C"/>
<path d="M149.689 340.951C154.489 338.151 159.389 335.351 164.189 332.551C175.789 325.851 187.389 319.151 198.989 312.451C212.989 304.351 227.089 296.251 241.089 288.151C253.189 281.151 265.189 274.251 277.289 267.251C283.189 263.851 289.189 260.651 294.989 257.051C295.089 257.051 295.189 256.951 295.189 256.951C297.989 255.351 295.489 251.051 292.689 252.651C287.889 255.451 282.989 258.251 278.189 261.051C266.589 267.751 254.989 274.451 243.389 281.151C229.389 289.251 215.289 297.351 201.289 305.451C189.189 312.451 177.189 319.351 165.089 326.351C159.189 329.751 153.189 332.951 147.389 336.551C147.289 336.551 147.189 336.651 147.189 336.651C144.389 338.251 146.889 342.551 149.689 340.951Z" fill="#0A4D4C"/>
<path d="M1.28845 257.051C6.18845 259.851 10.9884 262.651 15.8884 265.451C27.4884 272.151 39.0885 278.851 50.7885 285.551C64.7885 293.651 78.8884 301.651 92.8884 309.751C104.988 316.751 117.188 323.651 129.288 330.651C135.188 334.051 140.988 337.551 146.988 340.851C147.088 340.851 147.188 340.951 147.188 340.951C149.988 342.551 152.488 338.251 149.688 336.651C144.788 333.851 139.988 331.051 135.088 328.251C123.488 321.551 111.888 314.851 100.188 308.151C86.1884 300.051 72.0884 292.051 58.0884 283.951C45.9884 276.951 33.7885 270.051 21.6884 263.051C15.7885 259.651 9.98845 256.151 3.98845 252.851C3.88845 252.851 3.78845 252.751 3.78845 252.751C0.988448 251.151 -1.51155 255.451 1.28845 257.051Z" fill="#0A4D4C"/>
<path d="M147.189 39.6509C151.989 42.4509 156.889 45.2509 161.689 48.0509C173.189 54.7509 184.789 61.3509 196.289 68.0509C210.289 76.1509 224.289 84.2509 238.389 92.3509C250.489 99.3509 262.489 106.251 274.589 113.251C280.489 116.651 286.289 120.251 292.289 123.451C292.389 123.451 292.489 123.551 292.489 123.551C295.289 125.151 297.789 120.851 294.989 119.251C290.189 116.451 285.289 113.651 280.489 110.851C268.989 104.151 257.389 97.5509 245.889 90.8509C231.889 82.7509 217.889 74.6509 203.789 66.5509C191.689 59.5509 179.689 52.6509 167.589 45.6509C161.689 42.2509 155.889 38.6509 149.889 35.4509C149.789 35.4509 149.689 35.3509 149.689 35.3509C146.889 33.6509 144.389 38.0509 147.189 39.6509Z" fill="#0A4D4C"/>
<path d="M147.489 73.0508C152.289 75.8508 157.189 78.6508 161.989 81.4508C173.489 88.1508 184.989 94.8508 196.589 101.551C210.489 109.651 224.489 117.751 238.389 125.851C250.489 132.851 262.589 139.951 274.689 146.951C280.489 150.351 286.289 153.951 292.189 157.151C292.289 157.151 292.389 157.251 292.389 157.251C295.189 158.851 297.689 154.551 294.889 152.951C290.089 150.151 285.189 147.351 280.389 144.551C268.889 137.851 257.389 131.151 245.789 124.451C231.889 116.351 217.889 108.251 203.989 100.151C191.889 93.1508 179.789 86.0508 167.689 79.0508C161.889 75.6508 156.089 72.0508 150.189 68.8508C150.089 68.8508 149.989 68.7508 149.989 68.7508C147.289 67.0508 144.789 71.4508 147.489 73.0508Z" fill="#0A4D4C"/>
<path d="M147.189 107.451C151.989 110.251 156.889 113.051 161.689 115.851C173.189 122.551 184.789 129.151 196.289 135.851C210.289 143.951 224.389 152.051 238.389 160.151C250.489 167.151 262.489 174.051 274.589 181.051C280.489 184.451 286.289 188.051 292.289 191.251C292.389 191.251 292.489 191.351 292.489 191.351C295.289 192.951 297.789 188.651 294.989 187.051C290.189 184.251 285.289 181.451 280.489 178.651C268.989 171.951 257.389 165.351 245.889 158.651C231.889 150.551 217.789 142.451 203.789 134.351C191.689 127.351 179.689 120.451 167.589 113.451C161.689 110.051 155.889 106.451 149.889 103.251C149.789 103.251 149.689 103.151 149.689 103.151C146.889 101.451 144.389 105.851 147.189 107.451Z" fill="#0A4D4C"/>
<path d="M147.389 209.951C151.089 212.151 154.889 214.251 158.589 216.451C167.589 221.651 176.589 226.851 185.589 232.051C196.389 238.351 207.289 244.551 218.089 250.851C227.489 256.251 236.889 261.751 246.289 267.151C250.789 269.751 255.289 272.551 259.989 275.051C260.089 275.051 260.089 275.151 260.189 275.151C262.989 276.751 265.489 272.451 262.689 270.851C258.989 268.651 255.189 266.551 251.489 264.351C242.489 259.151 233.489 253.951 224.489 248.751C213.689 242.451 202.789 236.251 191.989 229.951C182.589 224.551 173.189 219.051 163.789 213.651C159.289 211.051 154.789 208.251 150.089 205.751C149.989 205.751 149.989 205.651 149.889 205.651C147.089 203.951 144.589 208.351 147.389 209.951Z" fill="#0A4D4C"/>
<path d="M147.189 244.251C149.989 245.851 152.689 247.451 155.489 249.051C162.189 252.851 168.889 256.751 175.589 260.551C183.689 265.151 191.689 269.751 199.789 274.351C206.789 278.351 213.789 282.351 220.789 286.351C224.189 288.251 227.489 290.351 230.989 292.151L231.089 292.251C233.889 293.851 236.389 289.551 233.589 287.951C230.789 286.351 228.089 284.751 225.289 283.151C218.589 279.351 211.889 275.451 205.189 271.651C197.089 267.051 189.089 262.451 180.989 257.851C173.989 253.851 166.989 249.851 159.989 245.851C156.589 243.951 153.289 241.851 149.789 240.051L149.689 239.951C146.889 238.351 144.389 242.651 147.189 244.251Z" fill="#0A4D4C"/>
<path d="M147.288 277.951C153.388 281.451 159.588 285.051 165.688 288.551C175.488 294.151 185.288 299.851 195.088 305.451C197.288 306.751 199.588 308.051 201.788 309.351C204.588 310.951 207.088 306.651 204.288 305.051C198.188 301.551 191.988 297.951 185.888 294.451C176.088 288.851 166.288 283.151 156.488 277.551C154.288 276.251 151.988 274.951 149.788 273.651C146.988 271.951 144.488 276.251 147.288 277.951Z" fill="#0A4D4C"/>
<path d="M292.288 195.051C289.288 196.451 286.188 197.751 283.188 199.151C275.888 202.451 268.588 205.751 261.188 209.051C252.388 213.051 243.588 216.951 234.788 220.951C227.088 224.351 219.488 227.851 211.788 231.251C209.288 232.351 206.788 233.551 204.188 234.651C202.988 235.151 201.788 235.651 200.588 236.251C200.488 236.251 200.488 236.251 200.388 236.351C199.188 236.951 198.888 238.651 199.488 239.751C200.188 241.051 201.688 241.251 202.888 240.651C205.888 239.251 208.988 237.951 211.988 236.551C219.288 233.251 226.588 229.951 233.988 226.651C242.788 222.651 251.588 218.751 260.388 214.751C268.088 211.351 275.688 207.851 283.388 204.451C285.888 203.351 288.388 202.151 290.988 201.051C292.188 200.551 293.388 200.051 294.588 199.451C294.688 199.451 294.688 199.451 294.788 199.351C295.988 198.751 296.288 197.051 295.688 195.951C294.988 194.651 293.488 194.451 292.288 195.051Z" fill="#0A4D4C"/>
<path d="M272.888 175.751C269.588 177.251 266.288 178.751 262.988 180.151C255.088 183.751 247.088 187.251 239.188 190.851C229.588 195.151 220.088 199.451 210.488 203.751C202.188 207.451 193.888 211.151 185.588 214.951C182.888 216.151 180.188 217.351 177.488 218.651C176.188 219.251 174.788 219.751 173.588 220.451C173.488 220.451 173.488 220.551 173.388 220.551C172.188 221.151 171.888 222.851 172.488 223.951C173.188 225.251 174.688 225.451 175.888 224.851C179.188 223.351 182.488 221.851 185.788 220.451C193.688 216.851 201.688 213.351 209.588 209.751C219.188 205.451 228.688 201.151 238.288 196.851C246.588 193.151 254.888 189.451 263.188 185.651C265.888 184.451 268.588 183.251 271.288 181.951C272.588 181.351 273.988 180.851 275.188 180.151C275.288 180.151 275.288 180.051 275.388 180.051C276.588 179.451 276.888 177.751 276.288 176.651C275.588 175.351 274.188 175.251 272.888 175.751Z" fill="#0A4D4C"/>
<path d="M241.689 157.651C238.589 159.051 235.489 160.451 232.389 161.851C224.889 165.251 217.389 168.651 209.889 172.051C200.889 176.151 191.789 180.251 182.789 184.351C174.889 187.951 167.089 191.451 159.189 195.051C156.589 196.251 153.989 197.351 151.489 198.551C150.289 199.151 148.989 199.551 147.789 200.251C147.689 200.251 147.689 200.251 147.589 200.351C146.389 200.951 146.089 202.651 146.689 203.751C147.389 205.051 148.889 205.251 150.089 204.651C153.189 203.251 156.289 201.851 159.389 200.451C166.889 197.051 174.389 193.651 181.889 190.251C190.889 186.151 199.989 182.051 208.989 177.951C216.889 174.351 224.689 170.851 232.589 167.251C235.189 166.051 237.789 164.951 240.289 163.751C241.489 163.151 242.789 162.751 243.989 162.051C244.089 162.051 244.089 162.051 244.189 161.951C245.389 161.351 245.689 159.651 245.089 158.551C244.289 157.351 242.889 157.151 241.689 157.651Z" fill="#0A4D4C"/>
<path d="M210.389 139.551C203.289 142.751 196.189 145.951 189.089 149.151C177.889 154.251 166.589 159.351 155.389 164.451C152.789 165.651 150.189 166.751 147.589 167.951C146.389 168.551 146.089 170.251 146.689 171.351C147.389 172.651 148.889 172.851 150.089 172.251C157.189 169.051 164.289 165.851 171.389 162.651C182.589 157.551 193.889 152.451 205.089 147.351C207.689 146.151 210.289 145.051 212.889 143.851C214.089 143.251 214.389 141.551 213.789 140.451C213.089 139.151 211.589 138.951 210.389 139.551Z" fill="#0A4D4C"/>
<path d="M436.907 175.453H411.072V226.763H399.689V112.4H430.945C461.659 112.4 477.016 122.698 477.016 143.475C477.016 151.786 474.487 158.29 469.609 163.168C464.73 168.046 457.504 171.659 448.109 173.647L483.701 226.763H470.331L436.907 175.453ZM432.571 167.323C454.252 167.323 465.092 159.374 465.092 143.475C465.092 135.706 462.382 129.925 456.962 126.131C451.542 122.336 442.869 120.53 430.765 120.53H411.072V167.323H432.571Z" fill="#0A4D4C"/>
<path d="M522.364 112.4V226.763H510.981V112.4H522.364Z" fill="#0A4D4C"/>
<path d="M643.412 112.4L601.316 226.763H588.669L546.393 112.4H558.678L595.173 216.465L631.849 112.4H643.412Z" fill="#0A4D4C"/>
<path d="M733.024 112.4L731.76 120.71H678.643V163.348H724.533V171.659H678.643V218.453H734.289V226.763H667.261V112.4H733.024Z" fill="#0A4D4C"/>
<path d="M801.137 175.453H775.301V226.763H763.919V112.4H795.175C825.889 112.4 841.245 122.698 841.245 143.475C841.245 151.786 838.716 158.29 833.838 163.168C828.96 168.046 821.733 171.659 812.338 173.647L847.75 226.763H834.38L801.137 175.453ZM796.801 167.323C818.481 167.323 829.321 159.374 829.321 143.475C829.321 135.706 826.611 129.925 821.191 126.131C815.771 122.336 807.099 120.53 794.994 120.53H775.301V167.323H796.801Z" fill="#0A4D4C"/>
<path d="M990.117 113.123C995.176 114.929 1000.05 117.459 1005.11 121.072L999.151 127.757C994.815 124.685 990.479 122.337 986.504 121.072C982.529 119.807 977.832 119.085 972.773 119.085C960.488 119.085 950.731 123.24 942.963 131.37C935.375 139.681 931.58 152.328 931.58 169.491C931.58 180.693 933.387 189.907 936.82 197.495C940.253 205.083 945.131 210.684 951.273 214.297C957.416 217.911 964.282 219.717 972.05 219.717C978.193 219.717 983.433 218.995 987.769 217.369C992.105 215.743 996.441 213.394 1000.78 210.323L1006.56 216.827C997.163 224.776 985.42 228.751 971.689 228.751C961.572 228.751 952.719 226.402 944.769 221.886C936.82 217.369 930.677 210.684 926.341 201.831C921.824 192.978 919.656 182.319 919.656 169.672C919.656 157.025 922.005 146.366 926.702 137.513C931.4 128.66 937.543 121.975 945.492 117.459C953.441 112.942 962.114 110.774 972.05 110.774C979.097 110.593 985.059 111.496 990.117 113.123Z" fill="#0A4D4C"/>
<path d="M1043.23 112.4V217.73H1097.25L1095.81 226.763H1032.03V112.4H1043.23Z" fill="#0A4D4C"/>
<path d="M1200.24 190.991C1200.24 202.373 1196.62 211.407 1189.22 218.272C1181.81 225.137 1171.33 228.57 1157.78 228.57C1143.87 228.57 1133.39 225.137 1126.16 218.453C1118.93 211.587 1115.32 202.554 1115.32 190.991V112.4H1126.7V190.268C1126.7 199.844 1129.23 207.251 1134.29 212.31C1139.35 217.369 1147.3 220.079 1157.78 220.079C1168.26 220.079 1176.21 217.549 1181.27 212.31C1186.32 207.071 1188.85 199.844 1188.85 190.268V112.4H1200.42V190.991H1200.24Z" fill="#0A4D4C"/>
<path d="M1313.7 174.369C1319.3 179.066 1322.01 185.932 1322.01 194.965C1322.01 205.625 1317.85 213.574 1309.72 218.814C1301.59 224.053 1290.21 226.583 1275.57 226.583H1240.34V112.219H1269.25C1284.25 112.219 1295.81 114.567 1303.94 119.446C1312.07 124.143 1316.04 131.37 1316.04 140.765C1316.04 147.811 1313.88 153.411 1309.54 157.747C1305.2 162.083 1299.42 164.794 1292.2 165.878C1301.05 166.962 1308.28 169.852 1313.7 174.369ZM1251.55 120.71V162.626H1277.56C1285.69 162.626 1292.02 160.819 1297.07 157.025C1301.95 153.231 1304.48 148.172 1304.48 141.668C1304.48 134.26 1301.59 128.84 1295.81 125.588C1290.03 122.336 1281.54 120.71 1270.15 120.71H1251.55ZM1310.26 194.965C1310.26 186.655 1307.37 180.692 1301.59 176.537C1295.81 172.562 1288.22 170.575 1278.83 170.575H1251.55V218.272H1275.57C1298.7 218.452 1310.26 210.684 1310.26 194.965Z" fill="#0A4D4C"/>
</svg>
