<svg width="1632" height="422" viewBox="0 0 1632 422" fill="none" xmlns="http://www.w3.org/2000/svg">
<path d="M35.4936 0C38.4346 1.96075 41.3074 5.36112 43.8677 7.8624C51.5592 15.4411 59.1821 23.0937 66.7272 30.8198L92.0885 56.3534C97.7021 61.9843 103.511 67.4841 108.696 73.5187C115.485 67.2676 123.371 61.7294 130.614 55.9728C147.455 42.5611 164.457 29.3424 181.599 16.32C167.012 42.5217 150.941 67.92 135.788 93.8064L190.1 148.574C210.346 168.876 230.839 189.015 250.259 210.115C261.544 222.626 272.694 235.263 283.697 248.023C317.086 286.116 350.028 324.598 382.514 363.458C385.051 366.401 387.548 369.352 389.947 372.407C384.124 381.633 377.588 390.459 371.219 399.314C365.834 406.802 360.596 414.462 354.758 421.603C338.532 406.633 323.558 389.74 308.313 373.761L214.295 274.281C159.301 216.921 105.517 158.404 52.9862 98.7782L18.8506 60.659C12.4666 53.4888 5.86272 46.3752 0 38.7686C4.43822 32.9318 9.91536 27.5745 14.8704 22.1587C21.6643 14.7312 28.3291 7.0752 35.4936 0Z" fill="#3337AD"/>
<path d="M535.683 110.736L529.012 90.6135H619.453V114.673H589.926V189.587H562.148V114.673H540.932C539.547 114.673 538.381 114.199 537.433 113.251C536.558 112.304 535.974 111.465 535.683 110.736ZM665.931 189.586H655.104V112.704C652.844 109.132 650.766 105.559 648.871 101.987C646.975 98.487 645.371 94.6959 644.059 90.613H682.772V153.935L717.002 103.52C719.262 99.729 721.777 96.9221 724.547 95.0995C727.245 93.3498 730.197 92.1833 733.406 91.6C736.614 90.9438 740.077 90.6158 743.795 90.6158H754.731V189.587H727.063V126.265L692.723 176.901C690.099 180.765 687.292 183.608 684.303 185.431C681.386 187.18 678.397 188.31 675.335 188.821C672.273 189.331 669.139 189.586 665.931 189.586ZM787.87 90.6144H893.95V189.586H866.282V112.704H826.256V189.586H798.478V112.704C796.729 108.913 794.797 105.34 792.682 101.987C790.641 98.5599 789.037 94.7702 787.87 90.6144ZM938.24 90.6144H1010.09L1034.37 189.586H1006.15L998.936 161.48H998.389C997.442 164.104 996.129 166.364 994.452 168.26C992.775 170.156 990.442 171.104 987.453 171.104H960.988L956.067 189.585H929.055L948.74 112.704C945.678 108.986 943.491 105.413 942.178 101.986C940.793 98.4869 939.479 94.6973 938.24 90.6144ZM975.86 111.284L964.924 153.387H997.076L986.14 111.284H975.86Z" fill="#000402"/>
<path d="M538.179 232.032H610.03L634.308 331.003H606.093L598.875 302.897H598.219C597.271 305.522 595.995 307.782 594.391 309.678C592.714 311.573 590.381 312.521 587.392 312.521H560.927L556.006 331.003H528.994L548.679 254.121C545.617 250.403 543.393 246.831 542.008 243.404C540.696 239.904 539.418 236.115 538.179 232.032ZM575.799 252.701L564.863 294.805H597.015L586.079 252.701H575.799ZM725.842 277.854V254.123H697.299V331.005H669.74V254.123C667.334 250.915 665.293 247.452 663.616 243.734C661.939 240.016 660.371 236.115 658.913 232.032H752.527V258.498C752.527 261.195 752.126 263.82 751.324 266.372C750.668 267.83 749.356 269.106 747.387 270.199C745.492 271.366 743.232 272.386 740.607 273.261C738.055 274.136 735.431 274.975 732.733 275.777C730.108 276.506 727.811 277.198 725.842 277.854ZM873.917 331.005H789.274V254.123C787.087 250.842 785.118 247.306 783.368 243.515C781.692 239.724 780.124 235.896 778.666 232.032H873.917L869.871 244.718C868.777 247.488 867.465 249.712 865.934 251.389C864.403 253.139 861.96 254.013 858.607 254.013H816.94V271.183H861.668C861.377 272.787 860.939 274.719 860.356 276.979C859.773 279.166 859.007 281.354 858.06 283.541C857.112 285.728 855.982 287.551 854.669 289.009C853.357 290.467 851.753 291.196 849.857 291.196H824.814C823.064 291.196 821.715 290.649 820.768 289.556C819.82 288.462 819.127 287.223 818.69 285.838C818.252 284.452 817.851 283.359 817.487 282.557H816.94V309.131H861.012C862.908 309.131 864.512 309.897 865.824 311.428C867.136 312.886 868.267 314.782 869.214 317.114C870.089 319.448 870.891 321.854 871.62 324.332C872.422 326.811 873.188 329.036 873.917 331.005ZM976.608 269.982V232.034H1004.39V331.006H976.608V291.964H944.237C942.925 291.964 941.613 291.381 940.3 290.214C938.988 288.975 938.077 287.444 937.566 285.621H936.582V331.005H909.023V254.124C906.836 250.916 904.904 247.453 903.228 243.735C901.551 240.017 899.983 236.116 898.525 232.033H936.582V269.981L976.608 269.982ZM1042.55 252.156L1035.88 232.034H1126.21V256.093H1096.68V331.007H1069.02V256.093H1047.8C1046.34 256.093 1045.17 255.619 1044.3 254.672C1043.42 253.724 1042.84 252.885 1042.55 252.156ZM1241.37 270.748L1220.15 277.856V253.797H1192.7C1191.24 253.797 1190.04 254.307 1189.09 255.328C1188.14 256.275 1187.67 257.478 1187.67 258.936V303.774C1187.67 305.159 1188.22 306.362 1189.31 307.383C1190.4 308.477 1191.64 309.023 1193.03 309.023H1247.6C1246.94 311.065 1246.25 313.325 1245.52 315.804C1244.87 318.356 1243.99 320.761 1242.9 323.022C1241.88 325.355 1240.57 327.287 1238.96 328.818C1237.36 330.276 1235.35 331.005 1232.95 331.005H1174.55C1170.47 331.005 1167 329.62 1164.16 326.849C1161.32 324.006 1159.9 320.543 1159.9 316.46V246.577C1159.9 242.567 1161.32 239.14 1164.16 236.297C1167 233.454 1170.47 232.032 1174.55 232.032H1246.95V261.997C1246.95 263.819 1246.4 265.533 1245.31 267.136C1244.29 268.813 1242.97 270.019 1241.37 270.748ZM1284.35 252.156L1277.78 232.034H1368.11V256.093H1338.59V331.007H1310.81V256.093H1289.59C1288.21 256.093 1287.08 255.619 1286.2 254.672C1285.26 253.724 1284.64 252.885 1284.35 252.156ZM1480.76 331.006H1403.33V254.124C1403.33 254.124 1402.89 253.359 1402.02 251.828C1401.14 250.297 1400.08 248.401 1398.84 246.141C1397.6 243.808 1396.4 241.366 1395.23 238.814C1394.14 236.262 1393.3 234.002 1392.72 232.034H1484.37C1485.82 232.034 1487.21 232.544 1488.52 233.565C1489.91 234.512 1490.96 235.715 1491.69 237.173C1492.5 238.559 1492.75 239.907 1492.46 241.22L1486.88 267.248C1486.52 269.362 1485.53 271.221 1483.93 272.825C1482.25 274.429 1480.17 275.596 1477.7 276.325H1492.02C1493.41 276.325 1494.76 276.799 1496.07 277.747C1497.45 278.767 1498.55 279.97 1499.35 281.355C1500.15 282.814 1500.41 284.199 1500.11 285.511L1494.1 319.96C1493.81 321.855 1492.97 323.678 1491.58 325.428C1490.2 327.105 1488.52 328.454 1486.55 329.474C1484.66 330.495 1482.72 331.006 1480.76 331.006ZM1470.26 291.199H1442.37C1440.77 291.199 1439.13 290.943 1437.45 290.433C1435.85 289.996 1434.64 289.157 1433.84 287.918L1430.89 282.778V310.337H1466.65C1466.87 310.337 1467.12 310.3 1467.41 310.227C1467.71 310.081 1467.89 309.681 1467.96 309.024L1471.13 292.401C1471.13 292.256 1471.02 292 1470.8 291.636C1470.59 291.344 1470.4 291.199 1470.26 291.199ZM1460.85 253.251H1430.89V270.967H1456.7C1457.06 270.967 1457.35 270.785 1457.57 270.42C1457.79 270.129 1457.97 269.837 1458.12 269.545L1461.73 254.672C1461.73 254.38 1461.66 254.089 1461.51 253.797C1461.36 253.433 1461.14 253.251 1460.85 253.251ZM1536.75 315.368V247.784C1536.75 243.263 1537.95 239.873 1540.36 237.613C1542.77 235.353 1545.79 233.858 1549.44 233.129C1553.15 232.4 1556.95 232.035 1560.81 232.035H1616.36C1619.28 232.035 1621.91 232.764 1624.24 234.223C1626.64 235.608 1628.54 237.467 1629.93 239.8C1631.31 242.206 1632 244.867 1632 247.784V315.368C1632 319.888 1630.8 323.242 1628.39 325.429C1625.99 327.689 1622.96 329.184 1619.32 329.913C1615.67 330.642 1611.92 331.006 1608.05 331.006H1552.39C1549.62 331.006 1547.03 330.314 1544.62 328.928C1542.22 327.543 1540.29 325.648 1538.83 323.242C1537.44 320.836 1536.75 318.211 1536.75 315.368ZM1564.31 259.049V303.996C1564.31 305.309 1564.82 306.512 1565.84 307.605C1566.79 308.626 1567.95 309.136 1569.34 309.136H1599.41C1600.8 309.136 1601.97 308.626 1602.91 307.605C1603.86 306.512 1604.33 305.309 1604.33 303.996V259.049C1604.33 257.737 1603.86 256.57 1602.91 255.55C1601.97 254.602 1600.8 254.128 1599.41 254.128H1569.34C1567.95 254.128 1566.79 254.602 1565.84 255.55C1564.82 256.57 1564.31 257.737 1564.31 259.049Z" fill="#000402"/>
</svg>
