<svg width="107" height="30" viewBox="0 0 107 30" fill="none" xmlns="http://www.w3.org/2000/svg">
<g clip-path="url(#clip0_5777_564)">
<path d="M30.6039 23.0354V21.2458C30.6164 21.1605 30.6425 21.078 30.6813 21.0012H30.592C30.5307 21.1327 30.4611 21.2602 30.3835 21.3829C29.8642 22.0389 29.1947 22.5598 28.4317 22.9015C27.6687 23.2431 26.8348 23.3955 26.0005 23.3456C24.952 23.3632 23.9106 23.1701 22.938 22.7775C21.9654 22.3849 21.0812 21.8009 20.3377 21.0601C19.5943 20.3193 19.0066 19.4366 18.6097 18.4643C18.2127 17.492 18.0144 16.4499 18.0265 15.3994V7.69789H21.4984V14.9998C21.4594 15.6235 21.5483 16.2486 21.7599 16.8367C21.9713 17.4246 22.3007 17.963 22.7278 18.4185C23.155 18.874 23.6708 19.237 24.2434 19.4852C24.816 19.7333 25.4332 19.8614 26.0571 19.8614C26.681 19.8614 27.2982 19.7333 27.8708 19.4852C28.4434 19.237 28.9592 18.874 29.3863 18.4185C29.8135 17.963 30.1429 17.4246 30.3543 16.8367C30.5659 16.2486 30.6548 15.6235 30.6158 14.9998V7.69789H34.1116V23.0354H30.6039ZM76.1796 15.0593C76.1777 13.4193 76.6629 11.8158 77.5722 10.4522C78.4825 9.0886 79.776 8.02627 81.2888 7.40011C82.8015 6.77386 84.4667 6.61182 86.0719 6.93457C87.6771 7.25732 89.1507 8.05038 90.305 9.213L87.8458 11.7006C87.1786 11.0346 86.3293 10.5814 85.4056 10.3984C84.482 10.2154 83.525 10.3107 82.6556 10.6723C81.7854 11.0339 81.0419 11.6456 80.5195 12.4301C79.9962 13.2147 79.7169 14.1368 79.7169 15.0802C79.7169 16.0235 79.9962 16.9457 80.5195 17.7302C81.0419 18.5148 81.7854 19.1264 82.6556 19.4881C83.525 19.8496 84.482 19.9449 85.4056 19.7619C86.3293 19.5789 87.1786 19.1258 87.8458 18.4597L90.3108 20.9175C89.1564 22.0807 87.6837 22.8744 86.0786 23.1983C84.4734 23.5221 82.8082 23.3615 81.2945 22.7367C79.7808 22.1119 78.4854 21.0511 77.5742 19.6887C76.6619 18.3262 76.1749 16.7233 76.173 15.0832M7.84329 1.29688H14.9478V4.90608H7.6944C4.12125 5.11483 2.29903 6.39144 0.470703 7.97232V3.71887C2.25728 2.4005 4.56792 1.50567 7.84329 1.29688Z" fill="#0E4494"/>
<path fill-rule="evenodd" clip-rule="evenodd" d="M62.077 15.0592C62.0829 16.0018 62.3673 16.9215 62.8943 17.7025C63.4214 18.4833 64.1675 19.0904 65.0386 19.447C65.9096 19.8037 66.8665 19.894 67.7887 19.7065C68.7109 19.519 69.557 19.0621 70.2203 18.3935C70.8835 17.7249 71.3343 16.8744 71.5154 15.9495C71.6975 15.0246 71.6012 14.0665 71.24 13.1962C70.8787 12.3259 70.2677 11.5823 69.4848 11.0592C68.7021 10.5361 67.7821 10.2569 66.8411 10.2569C66.213 10.2569 65.591 10.3813 65.0111 10.623C64.4312 10.8647 63.9046 11.2189 63.4619 11.6652C63.019 12.1116 62.6687 12.6412 62.4311 13.2237C62.1935 13.8061 62.0731 14.43 62.077 15.0592ZM57.1699 13.359H58.7838C59.2152 11.36 60.3693 9.59137 62.0242 8.39358C63.679 7.19579 65.7176 6.65333 67.7477 6.87066C69.7778 7.08789 71.6555 8.04967 73.0205 9.57068C74.3855 11.0918 75.1404 13.0647 75.1404 15.1099C75.1404 17.1551 74.3855 19.128 73.0205 20.6491C71.6555 22.1701 69.7778 23.1319 67.7477 23.3492C65.7176 23.5665 63.679 23.024 62.0242 21.8262C60.3693 20.6284 59.2152 18.8598 58.7838 16.8608H57.1699V23.0351H53.6564V7.69765H57.1699V13.359ZM0 15.0591C0 13.4192 0.485749 11.8162 1.39567 10.4531C2.30569 9.08989 3.59898 8.02784 5.1118 7.4014C6.62471 6.77496 8.28909 6.61225 9.89427 6.93395C11.4995 7.25556 12.9734 8.04719 14.1292 9.20837C15.2851 10.3696 16.0711 11.8483 16.3875 13.4572C16.704 15.0661 16.5368 16.733 15.907 18.2467C15.2773 19.7603 14.2134 21.0528 12.8499 21.9604C11.4866 22.868 9.88493 23.35 8.24791 23.3453C6.05823 23.339 3.96043 22.4632 2.41435 20.9099C0.868171 19.3567 0 17.2526 0 15.0591ZM3.51949 15.0949C3.51949 14.151 3.79896 13.2283 4.32246 12.4434C4.84595 11.6587 5.59002 11.0469 6.46048 10.6857C7.33103 10.3245 8.28899 10.23 9.21312 10.4142C10.1372 10.5983 10.9862 11.0528 11.6524 11.7202C12.3187 12.3877 12.7724 13.2381 12.9563 14.1638C13.1401 15.0896 13.0458 16.0492 12.6852 16.9213C12.3246 17.7933 11.714 18.5386 10.9305 19.0631C10.1471 19.5874 9.22598 19.8674 8.28365 19.8674C7.65607 19.8705 7.03392 19.7494 6.45323 19.511C5.87245 19.2725 5.34438 18.9215 4.89952 18.478C4.45457 18.0345 4.10151 17.5074 3.86063 16.9268C3.61967 16.3462 3.49566 15.7237 3.49566 15.0949L3.51949 15.0949Z" fill="#0E4494"/>
<path d="M102.835 23.0349V21.3048C102.828 21.2094 102.843 21.1138 102.877 21.0245H102.787C101.918 22.4741 99.5768 23.345 98.0527 23.345C96.4275 23.3442 94.8395 22.8641 93.4859 21.9647C92.1314 21.0654 91.0715 19.7864 90.4386 18.2875C89.8056 16.7887 89.6274 15.1362 89.9257 13.5364C90.2241 11.9366 90.9866 10.4603 92.1171 9.29168C93.2476 8.12306 94.6974 7.31389 96.2845 6.96511C97.8716 6.61643 99.5254 6.7435 101.041 7.33057C102.556 7.91774 103.865 8.9388 104.805 10.2665C105.744 11.5942 106.273 13.1697 106.325 14.7964V23.0349H102.835ZM102.805 15.0946C102.805 14.1508 102.525 13.228 102.002 12.4432C101.478 11.6584 100.734 11.0467 99.8637 10.6854C98.9935 10.3243 98.0355 10.2297 97.1109 10.4139C96.1873 10.598 95.338 11.0526 94.6717 11.72C94.0054 12.3875 93.5517 13.2378 93.3677 14.1636C93.1847 15.0894 93.2791 16.049 93.6394 16.921C93.9997 17.793 94.6107 18.5384 95.3942 19.0628C96.1777 19.5872 97.0985 19.8671 98.0403 19.8671C99.3042 19.8671 100.516 19.3643 101.41 18.4693C102.303 17.5743 102.805 16.3604 102.805 15.0946ZM39.3046 28.1413V21.2451C39.3028 21.1483 39.2889 21.052 39.2629 20.9588H39.3046C40.2455 22.3846 42.5145 23.2793 44.033 23.2793C45.66 23.2846 47.2523 22.809 48.6109 21.9122C49.9694 21.0154 51.0338 19.7372 51.6708 18.2375C52.3078 16.7378 52.4891 15.0832 52.1922 13.4808C51.8952 11.8784 51.1331 10.3992 50.0012 9.22848C48.8693 8.05776 47.4179 7.24736 45.8286 6.89877C44.2392 6.55019 42.5825 6.67887 41.0658 7.26871C39.5492 7.85854 38.2398 8.88323 37.3015 10.2147C36.3633 11.5463 35.8378 13.1254 35.791 14.7545V28.1354H39.3046V28.1413ZM39.3046 15.0529C39.3105 14.1103 39.5948 13.1904 40.122 12.4096C40.649 11.6287 41.395 11.0216 42.2661 10.6649C43.1371 10.3084 44.0941 10.2181 45.0163 10.4056C45.9385 10.5931 46.7846 11.0499 47.4479 11.7186C48.1112 12.3872 48.562 13.2376 48.7434 14.1625C48.9248 15.0875 48.8288 16.0455 48.4674 16.9158C48.1059 17.7862 47.4952 18.5298 46.7124 19.0529C45.9297 19.576 45.0098 19.8551 44.0688 19.8551C43.4406 19.8552 42.8186 19.7307 42.2386 19.4891C41.6587 19.2473 41.1322 18.8931 40.6894 18.4467C40.2466 18.0005 39.8963 17.4709 39.6586 16.8884C39.421 16.3059 39.3007 15.6821 39.3046 15.0529Z" fill="#0E4494"/>
</g>
<defs>
<clipPath id="clip0_5777_564">
<rect width="106.324" height="29.8227" fill="white"/>
</clipPath>
</defs>
</svg>
