<svg width="1077" height="1071" viewBox="0 0 1077 1071" fill="none" xmlns="http://www.w3.org/2000/svg">
<rect width="1077" height="1071" rx="230" fill="#1356A3"/>
<path d="M189.125 207.613L184 208V407.989C184 537.092 184.387 611.652 184.967 618.035C190.383 672.481 208.08 723.348 236.318 765.899C303.722 867.054 422.575 924.401 552.838 918.598C642.001 914.537 726.039 878.755 789.188 817.637C845.955 762.804 876.611 703.813 889.086 625.191C891.214 612.136 891.31 608.654 891.601 533.223L891.987 454.891L889.86 452.957C887.829 451.12 885.605 451.12 789.382 451.12C693.933 451.12 690.838 451.216 688.904 452.957C686.873 454.795 686.873 455.181 686.873 507.886C686.873 541.153 687.26 561.655 687.84 562.816C689.774 566.49 694.416 566.974 720.14 566.104C733.486 565.62 745.767 565.233 747.315 565.233H750.216L749.926 572.97C747.508 635.249 721.204 691.628 677.396 728.28C617.535 778.277 533.207 793.557 456.712 768.123C424.992 757.679 395.884 739.982 373.544 717.546C346.467 690.565 330.51 660.102 323.064 621.323C321.033 610.782 320.936 608.751 320.356 443.383C319.679 256.16 320.356 272.116 312.619 255.579C305.85 241.073 295.986 229.469 283.124 220.765C271.326 212.835 261.945 209.354 247.826 207.903C239.219 207.033 200.44 206.839 189.125 207.613Z" fill="white"/>
<path d="M629.333 208.484C569.181 217.768 519.474 252.002 485.24 307.511C468.703 334.299 457.775 367.566 454.874 399.382C454.197 406.345 453.81 448.993 453.81 512.625C453.81 611.072 453.907 615.037 455.745 622.194C459.806 638.15 471.218 653.236 484.853 660.78C496.651 667.356 513.382 669.87 526.534 667.162C544.908 663.294 563.185 647.627 569.955 629.64C574.887 616.681 574.887 616.585 575.564 510.111L576.241 410.503L578.852 401.8C584.461 383.619 592.294 371.144 606.8 357.315C619.855 344.743 635.425 337.974 656.7 335.653C663.373 334.976 701.282 334.589 771.781 334.589C829.611 334.589 829.323 334.888 830 334.501C832.901 332.664 881.253 327.046 881.253 269.215C881.253 212.062 881.253 210.805 879.319 208.871C877.384 206.937 876.127 206.936 757.759 207.033C660.569 207.13 636.392 207.42 629.333 208.484Z" fill="white"/>
</svg>
