<svg width="4451" height="1071" viewBox="0 0 4451 1071" fill="none" xmlns="http://www.w3.org/2000/svg">
<rect width="1077" height="1071" rx="230" fill="#1356A3"/>
<path d="M189.125 207.613L184 208V407.989C184 537.092 184.387 611.652 184.967 618.035C190.383 672.481 208.08 723.348 236.318 765.899C303.722 867.054 422.575 924.401 552.838 918.598C642.001 914.537 726.039 878.755 789.188 817.637C845.955 762.804 876.611 703.813 889.086 625.191C891.214 612.136 891.31 608.654 891.601 533.223L891.987 454.891L889.86 452.957C887.829 451.12 885.605 451.12 789.382 451.12C693.933 451.12 690.838 451.216 688.904 452.957C686.873 454.795 686.873 455.181 686.873 507.886C686.873 541.153 687.26 561.655 687.84 562.816C689.774 566.49 694.416 566.974 720.14 566.104C733.486 565.62 745.767 565.233 747.315 565.233H750.216L749.926 572.97C747.508 635.249 721.204 691.628 677.396 728.28C617.535 778.277 533.207 793.557 456.712 768.123C424.992 757.679 395.884 739.982 373.544 717.546C346.467 690.565 330.51 660.102 323.064 621.323C321.033 610.782 320.936 608.751 320.356 443.383C319.679 256.16 320.356 272.116 312.619 255.579C305.85 241.073 295.986 229.469 283.124 220.765C271.326 212.835 261.945 209.354 247.826 207.903C239.219 207.033 200.44 206.839 189.125 207.613Z" fill="white"/>
<path d="M629.333 208.484C569.181 217.768 519.474 252.002 485.24 307.511C468.703 334.299 457.776 367.566 454.874 399.382C454.197 406.345 453.811 448.993 453.811 512.625C453.811 611.072 453.907 615.037 455.745 622.194C459.806 638.15 471.218 653.236 484.853 660.78C496.651 667.356 513.382 669.87 526.534 667.162C544.908 663.294 563.185 647.627 569.955 629.64C574.887 616.681 574.887 616.585 575.564 510.111L576.241 410.503L578.852 401.8C584.461 383.619 592.294 371.144 606.8 357.315C619.855 344.743 635.425 337.974 656.701 335.653C663.373 334.976 701.282 334.589 771.781 334.589C829.612 334.589 829.323 334.888 830 334.501C832.901 332.664 881.253 327.046 881.253 269.215C881.253 212.062 881.253 210.805 879.319 208.871C877.385 206.937 876.127 206.936 757.759 207.033C660.569 207.13 636.392 207.42 629.333 208.484Z" fill="white"/>
<path d="M2059.45 526.045C2059.45 646.861 2058.92 747.191 2058.4 749.292C2057.35 751.919 2075.21 754.02 2097.79 755.071L2138.24 756.646V651.063C2138.24 536.025 2141.39 519.741 2167.13 499.78C2187.62 483.496 2214.41 479.819 2236.47 490.325C2266.41 504.508 2269.56 519.741 2269.56 645.811V756.121H2309.49H2349.41L2347.31 623.223C2345.73 492.951 2345.73 490.325 2332.6 467.212C2300.03 409.431 2210.73 397.874 2159.25 444.1L2138.77 463.01L2137.19 385.793L2135.62 308.05L2097.79 307.525L2059.45 306.999V526.045Z" fill="black"/>
<path d="M1559.37 477.719C1557.8 635.83 1557.8 637.932 1545.71 655.266C1528.38 679.429 1505.79 689.41 1468.5 689.935C1428.05 690.46 1404.41 677.854 1388.65 645.811C1377.1 623.224 1376.57 617.971 1376.57 471.415V320.132H1334.02H1292L1293.58 486.648C1295.15 652.114 1295.15 653.69 1308.28 678.904C1315.11 693.087 1330.35 712.523 1341.38 723.028C1376.05 754.02 1391.8 758.223 1468.5 758.748C1532.58 758.748 1538.36 757.697 1563.57 744.565C1596.67 727.231 1619.25 702.017 1631.86 668.924C1640.79 645.811 1641.84 626.901 1641.84 480.345V317.505H1601.4H1560.95L1559.37 477.719Z" fill="black"/>
<path d="M2822.69 337.466L2789.6 349.022V384.217V419.936H2763.33H2737.07V454.08V488.224H2762.81H2789.07L2790.65 600.11L2792.22 712.522L2806.93 731.433C2825.32 755.596 2852.11 763.475 2906.74 760.324C2928.8 758.748 2948.24 756.647 2949.81 755.071C2951.39 754.02 2950.86 738.261 2949.29 720.927L2945.61 688.884L2918.82 691.511C2872.07 695.713 2871.54 694.137 2869.44 583.301L2867.87 488.224H2907.26C2928.8 488.224 2947.71 486.648 2948.76 484.022C2950.34 481.92 2949.81 466.687 2948.76 449.878L2946.13 419.936H2907.26H2868.39V372.66C2868.39 337.991 2866.82 325.384 2862.09 325.91C2858.41 325.91 2840.55 331.163 2822.69 337.466Z" fill="black"/>
<path d="M1817.82 419.412C1772.12 433.595 1736.4 465.112 1716.43 508.711C1699.63 545.481 1700.15 632.679 1717.48 670.5C1743.22 728.282 1797.85 761.375 1867.72 761.375C1941.78 761.375 1993.79 722.504 2009.02 654.741L2012.17 640.559H1975.93C1940.21 640.559 1939.68 640.559 1928.65 658.944C1916.04 681.006 1889.25 698.34 1868.24 698.34C1844.6 698.34 1810.99 679.43 1799.43 660.52C1792.08 647.913 1788.92 630.578 1787.35 595.909C1785.77 554.411 1787.35 545.481 1797.85 525.52C1814.14 493.478 1832.52 481.396 1862.46 481.921C1890.83 481.921 1909.22 492.952 1923.92 517.641L1934.43 535.501L1969.62 532.349C1988.53 530.248 2005.34 528.147 2006.39 527.096C2007.44 526.046 2005.87 515.54 2002.19 503.458C1991.69 469.314 1953.86 434.645 1914.47 423.614C1881.38 414.159 1840.4 412.583 1817.82 419.412Z" fill="black"/>
<path d="M2512.25 422.039C2443.96 444.626 2406.66 503.459 2406.14 589.081C2406.14 695.189 2458.67 755.072 2556.89 760.325C2626.23 764.002 2678.24 741.94 2699.77 699.391C2718.68 662.621 2717.63 661.045 2678.76 658.419C2645.67 656.318 2643.57 656.843 2635.16 669.975C2617.3 696.24 2559.52 707.271 2526.95 690.461C2509.09 681.006 2492.28 655.267 2487.56 628.477L2483.88 609.042H2600.49H2717.63L2715.01 568.069C2709.75 498.731 2678.76 448.303 2627.81 426.766C2601.02 415.735 2539.56 413.109 2512.25 422.039ZM2598.39 486.124C2617.3 495.054 2637.26 526.046 2637.26 546.007C2637.26 555.987 2634.11 556.513 2561.62 556.513H2485.98L2491.23 537.077C2502.26 497.155 2524.33 478.245 2560.05 477.719C2571.6 477.719 2588.94 481.396 2598.39 486.124Z" fill="black"/>
<path d="M3086.39 423.089C3003.92 453.556 2966.1 584.353 3012.85 677.329C3039.11 729.333 3094.79 760.325 3150.47 754.547C3179.89 751.395 3220.34 731.434 3230.84 715.15C3235.57 708.321 3236.1 714.625 3234.52 741.414C3231.89 782.912 3217.71 808.651 3191.97 821.258C3155.2 838.593 3095.32 825.986 3081.14 797.62C3074.83 786.064 3070.63 783.437 3059.07 785.013C3050.67 786.064 3033.33 787.114 3019.68 787.114C2990.79 787.64 2989.74 790.791 3006.55 823.885C3047.52 903.729 3202.48 916.335 3272.87 845.947C3313.84 804.974 3314.89 797.62 3314.89 594.859V419.938H3274.97H3234.52L3237.15 443.576C3238.72 456.708 3239.77 467.214 3238.72 467.214C3238.2 467.214 3228.22 458.284 3216.66 447.253C3183.57 415.735 3132.61 406.28 3086.39 423.089ZM3197.23 494.529C3222.96 509.237 3236.1 542.855 3236.1 592.232C3236.1 643.711 3226.12 664.722 3194.07 681.006C3181.47 687.835 3164.66 693.088 3157.3 693.088C3133.67 693.088 3098.47 671.026 3087.44 650.014C3073.26 621.648 3070.11 579.625 3080.09 545.482C3097.42 486.124 3147.32 464.587 3197.23 494.529Z" fill="black"/>
<path d="M3514.5 426.24C3500.32 433.594 3485.61 446.726 3477.73 458.808L3464.6 479.294L3463.02 449.352L3461.44 419.936H3425.2H3388.43V588.029V756.121H3425.2H3461.97V670.499C3461.97 623.748 3464.6 574.896 3467.75 561.764C3477.73 518.165 3523.95 487.698 3569.65 495.053L3588.04 498.204V461.434C3588.04 441.473 3588.56 423.613 3589.62 420.987C3590.14 418.886 3579.11 416.784 3564.4 415.734C3545.49 414.683 3531.83 417.835 3514.5 426.24Z" fill="black"/>
<path d="M3720.94 419.937C3675.24 430.443 3630.06 475.093 3630.06 509.762V524.995H3665.78C3700.45 524.995 3700.97 524.47 3708.33 508.711C3720.41 480.871 3762.43 469.84 3793.43 485.598C3810.76 495.054 3819.16 511.863 3819.16 537.077V554.411L3758.23 560.715C3664.73 570.695 3627.43 591.707 3613.78 641.609C3596.44 706.22 3645.82 761.375 3720.41 761.375C3756.66 761.375 3778.72 752.97 3804.46 730.383L3823.37 714.099L3829.67 729.858C3838.6 751.395 3849.11 756.122 3886.93 756.122H3918.97V725.13C3918.97 698.866 3917.39 694.138 3908.46 691.512C3898.48 688.885 3897.96 684.158 3897.96 603.788C3897.96 503.983 3892.71 478.77 3866.97 451.455C3837.55 420.463 3775.04 406.805 3720.94 419.937ZM3818.11 635.306C3813.39 682.582 3768.74 711.998 3723.56 698.866C3676.29 684.683 3684.17 624.8 3734.59 616.395C3745.1 614.819 3757.18 612.718 3761.38 611.668C3765.59 611.142 3780.82 610.092 3795 609.567L3820.74 609.041L3818.11 635.306Z" fill="black"/>
<path d="M4100.2 424.664C4088.11 429.917 4072.36 441.998 4064.48 450.928L4050.29 468.263V444.099V419.936H4010.9H3971.5V588.029V756.121H4010.9H4050.29V646.861C4050.29 523.943 4053.45 510.286 4088.11 490.85C4112.28 477.718 4141.17 484.021 4157.45 505.558C4167.96 519.741 4168.48 528.146 4170.06 638.456L4171.64 756.121H4210.51H4249.38L4250.95 641.608C4252.53 512.912 4254.63 505.033 4290.88 489.8C4318.19 478.769 4343.4 485.597 4358.64 508.71C4370.19 526.045 4370.72 530.247 4370.72 641.083V756.121H4410.64H4450.56L4448.46 623.223C4446.89 497.154 4446.36 489.8 4434.81 468.788C4400.66 404.703 4306.63 396.823 4254.11 453.029C4242.55 465.111 4234.14 470.889 4234.14 466.687C4234.14 461.959 4227.84 452.504 4219.96 444.625C4188.44 414.683 4139.59 406.804 4100.2 424.664Z" fill="black"/>
</svg>
